/* XPM */
static char * bottom_right_active_xpm[] = {
"24 8 6 1",
" 	c None",
".	c #CECECE",
"+	c #CACAC9",
"@	c #707070",
"#	c #CBCBCB",
"$	c #CDCCCC",
"................+......@",
"................#......@",
"................$......@",
".......................@",
".......................@",
".......................@",
".......................@",
"@@@@@@@@@@@@@@@@@@@@@@@@"};
