/* XPM */
static char * bottom_left_active_xpm[] = {
"24 8 6 1",
" 	c None",
".	c #707070",
"+	c #CECECE",
"@	c #CACAC9",
"#	c #CBCBCB",
"$	c #CDCCCC",
".++++++@++++++++++++++++",
".++++++#++++++++++++++++",
".++++++$++++++++++++++++",
".+++++++++++++++++++++++",
".+++++++++++++++++++++++",
".+++++++++++++++++++++++",
".+++++++++++++++++++++++",
"........................"};
