/* XPM */
static char * close_pressed_xpm[] = {
"28 32 70 1",
" 	c None",
".	c #707070",
"+	c #535453",
"@	c #535353",
"#	c #525352",
"$	c #6F6F6F",
"%	c #7E7E7E",
"&	c #828282",
"*	c #535252",
"=	c #525252",
"-	c #787878",
";	c #636363",
">	c #5F5F5F",
",	c #515252",
"'	c #515152",
")	c #515151",
"!	c #5E5E5E",
"~	c #515050",
"{	c #505151",
"]	c #505050",
"^	c #5D5D5D",
"/	c #4F5050",
"(	c #4F4F4F",
"_	c #4E4E4F",
":	c #5C5C5C",
"<	c #4E4F4E",
"[	c #4E4E4E",
"}	c #3686DA",
"|	c #4E4E4D",
"1	c #4381C1",
"2	c #4D4D4D",
"3	c #5B5B5B",
"4	c #4D4D4C",
"5	c #4C4C4C",
"6	c #397FC7",
"7	c #3A7FC8",
"8	c #397FC8",
"9	c #4D4C4C",
"0	c #4C4B4B",
"a	c #5A5A5A",
"b	c #3986D7",
"c	c #4B4C4C",
"d	c #4A4A4B",
"e	c #4B4A4B",
"f	c #595959",
"g	c #398EE7",
"h	c #4A4A4A",
"i	c #494949",
"j	c #494A4A",
"k	c #585858",
"l	c #484949",
"m	c #484849",
"n	c #484848",
"o	c #474848",
"p	c #484748",
"q	c #575757",
"r	c #474747",
"s	c #7D7D7D",
"t	c #464746",
"u	c #6B6B6B",
"v	c #757575",
"w	c #565656",
"x	c #767676",
"y	c #6A6A6A",
"z	c #464645",
"A	c #464646",
"B	c #454545",
"C	c #444444",
"D	c #454445",
"E	c #444545",
"............................",
"++++++++++++++@@@@@@@@@@@@@@",
"@@@@@@@@@@@@@@@@@@@@@@@@@@@@",
"##$%&&&&&&&&&&&&&&&&&&&&%$**",
"=$-;>>>>>>>>>>>>>>>>>>>>;-$=",
",%;>>>>>>>>>>>>>>>>>>>>>>;%'",
")&!!!!!!!!!!!!!!!!!!!!!!!!&)",
"~&!!!!!!!!!!!!!!!!!!!!!!!!&{",
"]&^^^^^^^^^^^^^^^^^^^^^^^^&]",
"/&^^^^^^^^^^^^^^^^^^^^^^^^&]",
"(&^^^^^^^^^^^^^^^^^^^^^^^^&(",
"_&::::::::::::::::::::::::&<",
"[&::::::::}}::::}}::::::::&[",
"|&::::::::11}::}11::::::::&2",
"2&33333333311}}11333333333&4",
"5&333333333367783333333333&9",
"5&333333333377773333333333&5",
"0&aaaaaaaaa}bbbb}aaaaaaaaa&c",
"d&aaaaaaaa}bbaabb}aaaaaaaa&e",
"d&ffffffffggffffggffffffff&h",
"h&ffffffffffffffffffffffff&h",
"i&ffffffffffffffffffffffff&j",
"i&kkkkkkkkkkkkkkkkkkkkkkkk&l",
"m&kkkkkkkkkkkkkkkkkkkkkkkk&n",
"o&kkkkkkkkkkkkkkkkkkkkkkkk&p",
"n&qqqqqqqqqqqqqqqqqqqqqqqq&r",
"rs3qqqqqqqqqqqqqqqqqqqqqq:%r",
"tuv3wwwwwwwwwwwwwwwwwwww3xyt",
"zzy%&&&&&&&&&&&&&&&&&&&&%yAA",
"BBBBBBBBBBBBBBBBBBBBBBBBBBBB",
"CCCCCCCCCCCCCCDDDDDDDDDDDDDD",
"EEEEEEEEEEEEEECCCCCCCCCCCCCC"};
