/* XPM */
static char * close_active_xpm[] = {
"28 32 49 1",
" 	c None",
".	c #707070",
"+	c #535453",
"@	c #535353",
"#	c #525352",
"$	c #535252",
"%	c #525252",
"&	c #515252",
"*	c #515152",
"=	c #515151",
"-	c #515050",
";	c #505151",
">	c #505050",
",	c #4F5050",
"'	c #4F4F4F",
")	c #4E4E4F",
"!	c #858888",
"~	c #4E4F4E",
"{	c #9A9C9B",
"]	c #4E4E4E",
"^	c #EEEEEC",
"/	c #4E4E4D",
"(	c #CDCDCD",
"_	c #4D4D4D",
":	c #4D4D4C",
"<	c #4C4C4C",
"[	c #C6C7C5",
"}	c #4D4C4C",
"|	c #4C4B4B",
"1	c #4B4C4C",
"2	c #4A4A4B",
"3	c #4B4A4B",
"4	c #D2D2D2",
"5	c #4A4A4A",
"6	c #494949",
"7	c #494A4A",
"8	c #484949",
"9	c #484849",
"0	c #484848",
"a	c #474848",
"b	c #484748",
"c	c #474747",
"d	c #464746",
"e	c #464645",
"f	c #464646",
"g	c #454545",
"h	c #444444",
"i	c #454445",
"j	c #444545",
"............................",
"++++++++++++++@@@@@@@@@@@@@@",
"@@@@@@@@@@@@@@@@@@@@@@@@@@@@",
"##############$$$$$$$$$$$$$$",
"%%%%%%%%%%%%%%%%%%%%%%%%%%%%",
"&&&&&&&&&&&&&&**************",
"============================",
"--------------;;;;;;;;;;;;;;",
">>>>>>>>>>>>>>>>>>>>>>>>>>>>",
",,,,,,,,,,,,,,>>>>>>>>>>>>>>",
"''''''''''''''''''''''''''''",
"))))))))))!!))~~{{~~~~~~~~~~",
"]]]]]]]]]]^^!]]{^^]]]]]]]]]]",
"//////////(^^!{^^(__________",
"___________(^^^^(:::::::::::",
"<<<<<<<<<<<<[^^[}}}}}}}}}}}}",
"<<<<<<<<<<<!^^^^{<<<<<<<<<<<",
"||||||||||!^^((^^{1111111111",
"2222222222^^(234^^3333333333",
"2222222222((2255((5555555555",
"5555555555555555555555555555",
"6666666666666677777777777777",
"6666666666666688888888888888",
"9999999999999900000000000000",
"aaaaaaaaaaaaaabbbbbbbbbbbbbb",
"00000000000000cccccccccccccc",
"cccccccccccccccccccccccccccc",
"dddddddddddddddddddddddddddd",
"eeeeeeeeeeeeeeffffffffffffff",
"gggggggggggggggggggggggggggg",
"hhhhhhhhhhhhhhiiiiiiiiiiiiii",
"jjjjjjjjjjjjjjhhhhhhhhhhhhhh"};
