/* XPM */
static char * close_prelight_xpm[] = {
"28 32 70 1",
" 	c None",
".	c #707070",
"+	c #535453",
"@	c #535353",
"#	c #525352",
"$	c #6F6F6F",
"%	c #7E7E7E",
"&	c #828282",
"*	c #535252",
"=	c #525252",
"-	c #787878",
";	c #636363",
">	c #5F5F5F",
",	c #515252",
"'	c #515152",
")	c #515151",
"!	c #5E5E5E",
"~	c #515050",
"{	c #505151",
"]	c #505050",
"^	c #5D5D5D",
"/	c #4F5050",
"(	c #4F4F4F",
"_	c #4E4E4F",
":	c #5C5C5C",
"<	c #858888",
"[	c #9A9C9B",
"}	c #4E4F4E",
"|	c #4E4E4E",
"1	c #EEEEEC",
"2	c #4E4E4D",
"3	c #CFCFCF",
"4	c #4D4D4D",
"5	c #5B5B5B",
"6	c #CECECE",
"7	c #4D4D4C",
"8	c #4C4C4C",
"9	c #C6C7C5",
"0	c #4D4C4C",
"a	c #4C4B4B",
"b	c #5A5A5A",
"c	c #4B4C4C",
"d	c #4A4A4B",
"e	c #D3D3D3",
"f	c #4B4A4B",
"g	c #595959",
"h	c #4A4A4A",
"i	c #494949",
"j	c #494A4A",
"k	c #585858",
"l	c #484949",
"m	c #484849",
"n	c #484848",
"o	c #474848",
"p	c #484748",
"q	c #575757",
"r	c #474747",
"s	c #7D7D7D",
"t	c #464746",
"u	c #6B6B6B",
"v	c #757575",
"w	c #565656",
"x	c #767676",
"y	c #6A6A6A",
"z	c #464645",
"A	c #464646",
"B	c #454545",
"C	c #444444",
"D	c #454445",
"E	c #444545",
"............................",
"++++++++++++++@@@@@@@@@@@@@@",
"@@@@@@@@@@@@@@@@@@@@@@@@@@@@",
"##$%&&&&&&&&&&&&&&&&&&&&%$**",
"=$-;>>>>>>>>>>>>>>>>>>>>;-$=",
",%;>>>>>>>>>>>>>>>>>>>>>>;%'",
")&!!!!!!!!!!!!!!!!!!!!!!!!&)",
"~&!!!!!!!!!!!!!!!!!!!!!!!!&{",
"]&^^^^^^^^^^^^^^^^^^^^^^^^&]",
"/&^^^^^^^^^^^^^^^^^^^^^^^^&]",
"(&^^^^^^^^^^^^^^^^^^^^^^^^&(",
"_&::::::::<<::::[[::::::::&}",
"|&::::::::11<::[11::::::::&|",
"2&::::::::311<[113::::::::&4",
"4&555555555611116555555555&7",
"8&555555555591195555555555&0",
"8&555555555<1111[555555555&8",
"a&bbbbbbbb<116611[bbbbbbbb&c",
"d&bbbbbbbb116bbe11bbbbbbbb&f",
"d&gggggggg66gggg66gggggggg&h",
"h&gggggggggggggggggggggggg&h",
"i&gggggggggggggggggggggggg&j",
"i&kkkkkkkkkkkkkkkkkkkkkkkk&l",
"m&kkkkkkkkkkkkkkkkkkkkkkkk&n",
"o&kkkkkkkkkkkkkkkkkkkkkkkk&p",
"n&qqqqqqqqqqqqqqqqqqqqqqqq&r",
"rs5qqqqqqqqqqqqqqqqqqqqqq:%r",
"tuv5wwwwwwwwwwwwwwwwwwww5xyt",
"zzy%&&&&&&&&&&&&&&&&&&&&%yAA",
"BBBBBBBBBBBBBBBBBBBBBBBBBBBB",
"CCCCCCCCCCCCCCDDDDDDDDDDDDDD",
"EEEEEEEEEEEEEECCCCCCCCCCCCCC"};
