/* XPM */
static char * hide_pressed_xpm[] = {
"28 32 65 1",
" 	c None",
".	c #707070",
"+	c #535453",
"@	c #535353",
"#	c #525352",
"$	c #6F6F6F",
"%	c #7E7E7E",
"&	c #828282",
"*	c #535252",
"=	c #525252",
"-	c #787878",
";	c #636363",
">	c #5F5F5F",
",	c #515252",
"'	c #515152",
")	c #515151",
"!	c #5E5E5E",
"~	c #515050",
"{	c #505151",
"]	c #505050",
"^	c #5D5D5D",
"/	c #4F5050",
"(	c #4F4F4F",
"_	c #4E4E4F",
":	c #5C5C5C",
"<	c #4E4F4E",
"[	c #4E4E4E",
"}	c #4E4E4D",
"|	c #4D4D4D",
"1	c #5B5B5B",
"2	c #4D4D4C",
"3	c #4C4C4C",
"4	c #3978B9",
"5	c #4D4C4C",
"6	c #397FC7",
"7	c #4C4B4B",
"8	c #5A5A5A",
"9	c #4B4C4C",
"0	c #4A4A4B",
"a	c #4B4A4B",
"b	c #595959",
"c	c #4A4A4A",
"d	c #494949",
"e	c #494A4A",
"f	c #585858",
"g	c #484949",
"h	c #484849",
"i	c #484848",
"j	c #474848",
"k	c #484748",
"l	c #575757",
"m	c #474747",
"n	c #7D7D7D",
"o	c #464746",
"p	c #6B6B6B",
"q	c #757575",
"r	c #565656",
"s	c #767676",
"t	c #6A6A6A",
"u	c #464645",
"v	c #464646",
"w	c #454545",
"x	c #444444",
"y	c #454445",
"z	c #444545",
"............................",
"++++++++++++++@@@@@@@@@@@@@@",
"@@@@@@@@@@@@@@@@@@@@@@@@@@@@",
"##$%&&&&&&&&&&&&&&&&&&&&%$**",
"=$-;>>>>>>>>>>>>>>>>>>>>;-$=",
",%;>>>>>>>>>>>>>>>>>>>>>>;%'",
")&!!!!!!!!!!!!!!!!!!!!!!!!&)",
"~&!!!!!!!!!!!!!!!!!!!!!!!!&{",
"]&^^^^^^^^^^^^^^^^^^^^^^^^&]",
"/&^^^^^^^^^^^^^^^^^^^^^^^^&]",
"(&^^^^^^^^^^^^^^^^^^^^^^^^&(",
"_&::::::::::::::::::::::::&<",
"[&::::::::::::::::::::::::&[",
"}&::::::::::::::::::::::::&|",
"|&111111111111111111111111&2",
"3&111111114444444411111111&5",
"3&111111116666666611111111&3",
"7&888888888888888888888888&9",
"0&888888888888888888888888&a",
"0&bbbbbbbbbbbbbbbbbbbbbbbb&c",
"c&bbbbbbbbbbbbbbbbbbbbbbbb&c",
"d&bbbbbbbbbbbbbbbbbbbbbbbb&e",
"d&ffffffffffffffffffffffff&g",
"h&ffffffffffffffffffffffff&i",
"j&ffffffffffffffffffffffff&k",
"i&llllllllllllllllllllllll&m",
"mn1llllllllllllllllllllll:%m",
"opq1rrrrrrrrrrrrrrrrrrrr1sto",
"uut%&&&&&&&&&&&&&&&&&&&&%tvv",
"wwwwwwwwwwwwwwwwwwwwwwwwwwww",
"xxxxxxxxxxxxxxyyyyyyyyyyyyyy",
"zzzzzzzzzzzzzzxxxxxxxxxxxxxx"};
