/* XPM */
static char * hide_active_xpm[] = {
"28 32 46 1",
" 	c None",
".	c #707070",
"+	c #535453",
"@	c #535353",
"#	c #525352",
"$	c #535252",
"%	c #525252",
"&	c #515252",
"*	c #515152",
"=	c #515151",
"-	c #515050",
";	c #505151",
">	c #505050",
",	c #4F5050",
"'	c #4F4F4F",
")	c #4E4E4F",
"!	c #4E4F4E",
"~	c #4E4E4E",
"{	c #4E4E4D",
"]	c #4D4D4D",
"^	c #858888",
"/	c #4D4D4C",
"(	c #4C4C4C",
"_	c #EEEEEC",
":	c #4D4C4C",
"<	c #CBCBCB",
"[	c #4C4B4B",
"}	c #4B4C4C",
"|	c #4A4A4B",
"1	c #4B4A4B",
"2	c #4A4A4A",
"3	c #494949",
"4	c #494A4A",
"5	c #484949",
"6	c #484849",
"7	c #484848",
"8	c #474848",
"9	c #484748",
"0	c #474747",
"a	c #464746",
"b	c #464645",
"c	c #464646",
"d	c #454545",
"e	c #444444",
"f	c #454445",
"g	c #444545",
"............................",
"++++++++++++++@@@@@@@@@@@@@@",
"@@@@@@@@@@@@@@@@@@@@@@@@@@@@",
"##############$$$$$$$$$$$$$$",
"%%%%%%%%%%%%%%%%%%%%%%%%%%%%",
"&&&&&&&&&&&&&&**************",
"============================",
"--------------;;;;;;;;;;;;;;",
">>>>>>>>>>>>>>>>>>>>>>>>>>>>",
",,,,,,,,,,,,,,>>>>>>>>>>>>>>",
"''''''''''''''''''''''''''''",
"))))))))))))))!!!!!!!!!!!!!!",
"~~~~~~~~~~~~~~~~~~~~~~~~~~~~",
"{{{{{{{{{{{{{{]]]]]]]]]]]]]]",
"]]]]]]]]]]^^^^^^^^//////////",
"((((((((((________::::::::::",
"((((((((((<<<<<<<<((((((((((",
"[[[[[[[[[[[[[[}}}}}}}}}}}}}}",
"||||||||||||||11111111111111",
"||||||||||||||22222222222222",
"2222222222222222222222222222",
"3333333333333344444444444444",
"3333333333333355555555555555",
"6666666666666677777777777777",
"8888888888888899999999999999",
"7777777777777700000000000000",
"0000000000000000000000000000",
"aaaaaaaaaaaaaaaaaaaaaaaaaaaa",
"bbbbbbbbbbbbbbcccccccccccccc",
"dddddddddddddddddddddddddddd",
"eeeeeeeeeeeeeeffffffffffffff",
"ggggggggggggggeeeeeeeeeeeeee"};
