/* XPM */
static char * hide_prelight_xpm[] = {
"28 32 66 1",
" 	c None",
".	c #707070",
"+	c #535453",
"@	c #535353",
"#	c #525352",
"$	c #6F6F6F",
"%	c #7E7E7E",
"&	c #828282",
"*	c #535252",
"=	c #525252",
"-	c #787878",
";	c #636363",
">	c #5F5F5F",
",	c #515252",
"'	c #515152",
")	c #515151",
"!	c #5E5E5E",
"~	c #515050",
"{	c #505151",
"]	c #505050",
"^	c #5D5D5D",
"/	c #4F5050",
"(	c #4F4F4F",
"_	c #4E4E4F",
":	c #5C5C5C",
"<	c #4E4F4E",
"[	c #4E4E4E",
"}	c #4E4E4D",
"|	c #4D4D4D",
"1	c #5B5B5B",
"2	c #858888",
"3	c #4D4D4C",
"4	c #4C4C4C",
"5	c #EEEEEC",
"6	c #4D4C4C",
"7	c #CDCDCD",
"8	c #4C4B4B",
"9	c #5A5A5A",
"0	c #4B4C4C",
"a	c #4A4A4B",
"b	c #4B4A4B",
"c	c #595959",
"d	c #4A4A4A",
"e	c #494949",
"f	c #494A4A",
"g	c #585858",
"h	c #484949",
"i	c #484849",
"j	c #484848",
"k	c #474848",
"l	c #484748",
"m	c #575757",
"n	c #474747",
"o	c #7D7D7D",
"p	c #464746",
"q	c #6B6B6B",
"r	c #757575",
"s	c #565656",
"t	c #767676",
"u	c #6A6A6A",
"v	c #464645",
"w	c #464646",
"x	c #454545",
"y	c #444444",
"z	c #454445",
"A	c #444545",
"............................",
"++++++++++++++@@@@@@@@@@@@@@",
"@@@@@@@@@@@@@@@@@@@@@@@@@@@@",
"##$%&&&&&&&&&&&&&&&&&&&&%$**",
"=$-;>>>>>>>>>>>>>>>>>>>>;-$=",
",%;>>>>>>>>>>>>>>>>>>>>>>;%'",
")&!!!!!!!!!!!!!!!!!!!!!!!!&)",
"~&!!!!!!!!!!!!!!!!!!!!!!!!&{",
"]&^^^^^^^^^^^^^^^^^^^^^^^^&]",
"/&^^^^^^^^^^^^^^^^^^^^^^^^&]",
"(&^^^^^^^^^^^^^^^^^^^^^^^^&(",
"_&::::::::::::::::::::::::&<",
"[&::::::::::::::::::::::::&[",
"}&::::::::::::::::::::::::&|",
"|&111111112222222211111111&3",
"4&111111115555555511111111&6",
"4&111111117777777711111111&4",
"8&999999999999999999999999&0",
"a&999999999999999999999999&b",
"a&cccccccccccccccccccccccc&d",
"d&cccccccccccccccccccccccc&d",
"e&cccccccccccccccccccccccc&f",
"e&gggggggggggggggggggggggg&h",
"i&gggggggggggggggggggggggg&j",
"k&gggggggggggggggggggggggg&l",
"j&mmmmmmmmmmmmmmmmmmmmmmmm&n",
"no1mmmmmmmmmmmmmmmmmmmmmm:%n",
"pqr1ssssssssssssssssssss1tup",
"vvu%&&&&&&&&&&&&&&&&&&&&%uww",
"xxxxxxxxxxxxxxxxxxxxxxxxxxxx",
"yyyyyyyyyyyyyyzzzzzzzzzzzzzz",
"AAAAAAAAAAAAAAyyyyyyyyyyyyyy"};
