/* XPM */
static char * maximize_inactive_xpm[] = {
"28 32 47 1",
" 	c None",
".	c #707070",
"+	c #535453",
"@	c #535353",
"#	c #525352",
"$	c #535252",
"%	c #525252",
"&	c #515252",
"*	c #515152",
"=	c #515151",
"-	c #515050",
";	c #505151",
">	c #505050",
",	c #4F5050",
"'	c #4F4F4F",
")	c #4E4E4F",
"!	c #6B6B6B",
"~	c #4E4F4E",
"{	c #4E4E4E",
"]	c #868686",
"^	c #4E4E4D",
"/	c #4D4D4D",
"(	c #4D4D4C",
"_	c #4C4C4C",
":	c #4D4C4C",
"<	c #CBCBCB",
"[	c #4C4B4B",
"}	c #4B4C4C",
"|	c #4A4A4B",
"1	c #B3B3B3",
"2	c #4B4A4B",
"3	c #4A4A4A",
"4	c #494949",
"5	c #494A4A",
"6	c #484949",
"7	c #484849",
"8	c #484848",
"9	c #474848",
"0	c #484748",
"a	c #474747",
"b	c #464746",
"c	c #464645",
"d	c #464646",
"e	c #454545",
"f	c #444444",
"g	c #454445",
"h	c #444545",
"............................",
"++++++++++++++@@@@@@@@@@@@@@",
"@@@@@@@@@@@@@@@@@@@@@@@@@@@@",
"##############$$$$$$$$$$$$$$",
"%%%%%%%%%%%%%%%%%%%%%%%%%%%%",
"&&&&&&&&&&&&&&**************",
"============================",
"--------------;;;;;;;;;;;;;;",
">>>>>>>>>>>>>>>>>>>>>>>>>>>>",
",,,,,,,,,,,,,,>>>>>>>>>>>>>>",
"''''''''''''''''''''''''''''",
")))))))))))))!!~~~~~~~~~~~~~",
"{{{{{{{{{{{{{]]{{{{{{{{{{{{{",
"^^^^^^^^^^^^^]]/////////////",
"//////////!!!]]!!!((((((((((",
"__________]]]]]]]]::::::::::",
"__________<<<]]<<<__________",
"[[[[[[[[[[[[[]]}}}}}}}}}}}}}",
"|||||||||||||112222222222222",
"|||||||||||||<<3333333333333",
"3333333333333333333333333333",
"4444444444444455555555555555",
"4444444444444466666666666666",
"7777777777777788888888888888",
"9999999999999900000000000000",
"88888888888888aaaaaaaaaaaaaa",
"aaaaaaaaaaaaaaaaaaaaaaaaaaaa",
"bbbbbbbbbbbbbbbbbbbbbbbbbbbb",
"ccccccccccccccdddddddddddddd",
"eeeeeeeeeeeeeeeeeeeeeeeeeeee",
"ffffffffffffffgggggggggggggg",
"hhhhhhhhhhhhhhffffffffffffff"};
