/* XPM */
static char * maximize_toggled_pressed_xpm[] = {
"28 32 67 1",
" 	c None",
".	c #707070",
"+	c #535453",
"@	c #535353",
"#	c #525352",
"$	c #6F6F6F",
"%	c #7E7E7E",
"&	c #828282",
"*	c #535252",
"=	c #525252",
"-	c #787878",
";	c #636363",
">	c #5F5F5F",
",	c #515252",
"'	c #515152",
")	c #515151",
"!	c #5E5E5E",
"~	c #515050",
"{	c #505151",
"]	c #505050",
"^	c #5D5D5D",
"/	c #4F5050",
"(	c #4F4F4F",
"_	c #4E4E4F",
":	c #5C5C5C",
"<	c #4E4F4E",
"[	c #4E4E4E",
"}	c #3A77B7",
"|	c #4E4E4D",
"1	c #3978B9",
"2	c #4D4D4D",
"3	c #5B5B5B",
"4	c #4D4D4C",
"5	c #4C4C4C",
"6	c #4D4C4C",
"7	c #397FC7",
"8	c #4C4B4B",
"9	c #5A5A5A",
"0	c #4B4C4C",
"a	c #4A4A4B",
"b	c #4B4A4B",
"c	c #595959",
"d	c #398EE7",
"e	c #4A4A4A",
"f	c #494949",
"g	c #494A4A",
"h	c #585858",
"i	c #484949",
"j	c #484849",
"k	c #484848",
"l	c #474848",
"m	c #484748",
"n	c #575757",
"o	c #474747",
"p	c #7D7D7D",
"q	c #464746",
"r	c #6B6B6B",
"s	c #757575",
"t	c #565656",
"u	c #767676",
"v	c #6A6A6A",
"w	c #464645",
"x	c #464646",
"y	c #454545",
"z	c #444444",
"A	c #454445",
"B	c #444545",
"............................",
"++++++++++++++@@@@@@@@@@@@@@",
"@@@@@@@@@@@@@@@@@@@@@@@@@@@@",
"##$%&&&&&&&&&&&&&&&&&&&&%$**",
"=$-;>>>>>>>>>>>>>>>>>>>>;-$=",
",%;>>>>>>>>>>>>>>>>>>>>>>;%'",
")&!!!!!!!!!!!!!!!!!!!!!!!!&)",
"~&!!!!!!!!!!!!!!!!!!!!!!!!&{",
"]&^^^^^^^^^^^^^^^^^^^^^^^^&]",
"/&^^^^^^^^^^^^^^^^^^^^^^^^&]",
"(&^^^^^^^^^^^^^^^^^^^^^^^^&(",
"_&::::::::::::::::::::::::&<",
"[&:::::::::::}}:::::::::::&[",
"|&:::::::::::11:::::::::::&2",
"2&333333333331133333333333&4",
"5&333333331111111133333333&6",
"5&333333337777777733333333&5",
"8&999999999997799999999999&0",
"a&999999999997799999999999&b",
"a&cccccccccccddccccccccccc&e",
"e&cccccccccccccccccccccccc&e",
"f&cccccccccccccccccccccccc&g",
"f&hhhhhhhhhhhhhhhhhhhhhhhh&i",
"j&hhhhhhhhhhhhhhhhhhhhhhhh&k",
"l&hhhhhhhhhhhhhhhhhhhhhhhh&m",
"k&nnnnnnnnnnnnnnnnnnnnnnnn&o",
"op3nnnnnnnnnnnnnnnnnnnnnn:%o",
"qrs3tttttttttttttttttttt3uvq",
"wwv%&&&&&&&&&&&&&&&&&&&&%vxx",
"yyyyyyyyyyyyyyyyyyyyyyyyyyyy",
"zzzzzzzzzzzzzzAAAAAAAAAAAAAA",
"BBBBBBBBBBBBBBzzzzzzzzzzzzzz"};
