/* XPM */
static char * menu_pressed_xpm[] = {
"24 32 36 1",
" 	c None",
".	c #707070",
"+	c #535453",
"@	c #535353",
"#	c #525352",
"$	c #535252",
"%	c #525252",
"&	c #515252",
"*	c #515152",
"=	c #515151",
"-	c #515050",
";	c #505151",
">	c #505050",
",	c #4F5050",
"'	c #4F4F4F",
")	c #4E4E4F",
"!	c #4E4E4E",
"~	c #4E4E4D",
"{	c #4D4D4D",
"]	c #4C4C4C",
"^	c #4C4B4B",
"/	c #4A4A4B",
"(	c #4A4A4A",
"_	c #494949",
":	c #484849",
"<	c #474848",
"[	c #484748",
"}	c #484848",
"|	c #474747",
"1	c #464746",
"2	c #464645",
"3	c #464646",
"4	c #454545",
"5	c #444444",
"6	c #454445",
"7	c #444545",
"........................",
"++++++++++++++@@@@@@@@@@",
"@@@@@@@@@@@@@@@@@@@@@@@@",
"##############$$$$$$$$$$",
"%%%%%%%%%%%%%%%%%%%%%%%%",
"&&&&&&&&&&&&&&**********",
"========================",
"--------------;;;;;;;;;;",
">>>>>>>>>>>>>>>>>>>>>>>>",
",,,,,,,,,,,,,,,,,,,,,,,,",
"''''''''''''''''''''''''",
"))))))))))))))))))))))))",
"!!!!!!!!!!!!!!!!!!!!!!!!",
"~~~~~~~~~~~~~~~~~~~~~~~~",
"{{{{{{{{{{{{{{{{{{{{{{{{",
"]]]]]]]]]]]]]]]]]]]]]]]]",
"]]]]]]]]]]]]]]]]]]]]]]]]",
"^^^^^^^^^^^^^^^^^^^^^^^^",
"////////////////////////",
"////////////////////////",
"((((((((((((((((((((((((",
"________________________",
"________________________",
"::::::::::::::::::::::::",
"<<<<<<<<<<<<<<[[[[[[[[[[",
"}}}}}}}}}}}}}}||||||||||",
"||||||||||||||||||||||||",
"111111111111111111111111",
"222222222222223333333333",
"444444444444444444444444",
"555555555555556666666666",
"777777777777775555555555"};
