/* XPM */
static char * top_left_active_xpm[] = {
"10 32 43 1",
" 	c None",
".	c #707070",
"+	c #535453",
"@	c #535353",
"#	c #525352",
"$	c #535252",
"%	c #525252",
"&	c #515252",
"*	c #515152",
"=	c #515151",
"-	c #515050",
";	c #505151",
">	c #505050",
",	c #4F5050",
"'	c #4F4F4F",
")	c #4E4E4F",
"!	c #4E4F4E",
"~	c #4E4E4E",
"{	c #4E4E4D",
"]	c #4D4D4D",
"^	c #4D4D4C",
"/	c #4C4C4C",
"(	c #4D4C4C",
"_	c #4C4B4B",
":	c #4B4C4C",
"<	c #4A4A4B",
"[	c #4B4A4B",
"}	c #4A4A4A",
"|	c #494949",
"1	c #494A4A",
"2	c #484949",
"3	c #484849",
"4	c #484848",
"5	c #474848",
"6	c #484748",
"7	c #474747",
"8	c #464746",
"9	c #464645",
"0	c #464646",
"a	c #454545",
"b	c #444444",
"c	c #454445",
"d	c #444545",
" .........",
".+++@@@@@@",
".@@@@@@@@@",
".###$$$$$$",
".%%%%%%%%%",
".&&&******",
".=========",
".---;;;;;;",
".>>>>>>>>>",
".,,,>>>>>>",
".'''''''''",
".)))!!!!!!",
".~~~~~~~~~",
".{{{]]]]]]",
".]]]^^^^^^",
".///((((((",
"./////////",
".___::::::",
".<<<[[[[[[",
".<<<}}}}}}",
".}}}}}}}}}",
".|||111111",
".|||222222",
".333444444",
".555666666",
".777777777",
".888888888",
".999000000",
".aaaaaaaaa",
".bbbcccccc",
".dddbbbbbb",
".bbbbbbbbb"};
